<svg width="40" height="40" viewBox="0 0 40 40" fill="none" xmlns="http://www.w3.org/2000/svg">
<g clip-path="url(#clip0_25_299)">
<path d="M5 10C5 8.67392 5.52678 7.40215 6.46447 6.46447C7.40215 5.52678 8.67392 5 10 5H25C26.3261 5 27.5979 5.52678 28.5355 6.46447C29.4732 7.40215 30 8.67392 30 10V38.75C29.9999 38.9761 29.9384 39.1979 29.8222 39.3919C29.706 39.5858 29.5393 39.7446 29.34 39.8513C29.1407 39.9581 28.9161 40.0087 28.6903 39.9979C28.4644 39.9871 28.2457 39.9153 28.0575 39.79L17.5 32.7525L6.9425 39.79C6.75426 39.9153 6.53558 39.9871 6.30973 39.9979C6.08388 40.0087 5.85933 39.9581 5.66 39.8513C5.46066 39.7446 5.29401 39.5858 5.17779 39.3919C5.06156 39.1979 5.00012 38.9761 5 38.75V10Z" fill="white"/>
<path d="M10.6699 2.5C11.1088 1.73992 11.7399 1.10875 12.5 0.669905C13.2601 0.231064 14.1223 2.22961e-05 14.9999 0L29.9999 0C31.326 0 32.5978 0.526784 33.5355 1.46447C34.4731 2.40215 34.9999 3.67392 34.9999 5V33.75C34.9998 33.9761 34.9384 34.1979 34.8221 34.3919C34.7059 34.5858 34.5393 34.7446 34.3399 34.8513C34.1406 34.9581 33.916 35.0087 33.6902 34.9979C33.4643 34.9871 33.2457 34.9153 33.0574 34.79L32.4999 34.42V5C32.4999 4.33696 32.2365 3.70107 31.7677 3.23223C31.2988 2.76339 30.663 2.5 29.9999 2.5H10.6699Z" fill="white"/>
</g>
<defs>
<clipPath id="clip0_25_299">
<rect width="40" height="40" fill="white"/>
</clipPath>
</defs>
</svg>
