<svg width="40" height="40" viewBox="0 0 40 40" fill="none" xmlns="http://www.w3.org/2000/svg">
<path opacity="0.4" d="M31.1156 3.33333H27.9489C24.3156 3.33333 22.3989 5.24999 22.3989 8.88333V12.05C22.3989 15.6833 24.3156 17.6 27.9489 17.6H31.1156C34.7489 17.6 36.6656 15.6833 36.6656 12.05V8.88333C36.6656 5.24999 34.7489 3.33333 31.1156 3.33333Z" fill="#696A6A"/>
<path opacity="0.4" d="M12.0668 22.3837H8.90016C5.25016 22.3837 3.3335 24.3003 3.3335 27.9337V31.1003C3.3335 34.7503 5.25016 36.667 8.8835 36.667H12.0502C15.6835 36.667 17.6002 34.7503 17.6002 31.117V27.9503C17.6168 24.3003 15.7002 22.3837 12.0668 22.3837Z" fill="#333435"/>
<path d="M10.4835 17.6333C14.4323 17.6333 17.6335 14.4322 17.6335 10.4833C17.6335 6.5345 14.4323 3.33333 10.4835 3.33333C6.53466 3.33333 3.3335 6.5345 3.3335 10.4833C3.3335 14.4322 6.53466 17.6333 10.4835 17.6333Z" fill="white"/>
<path d="M29.5167 36.6665C33.4655 36.6665 36.6667 33.4653 36.6667 29.5165C36.6667 25.5677 33.4655 22.3665 29.5167 22.3665C25.5679 22.3665 22.3667 25.5677 22.3667 29.5165C22.3667 33.4653 25.5679 36.6665 29.5167 36.6665Z" fill="#A4A4A5"/>
</svg>
