<svg width="40" height="40" viewBox="0 0 40 40" fill="none" xmlns="http://www.w3.org/2000/svg">
<g id="Home">
<path id="Vector" fill-rule="evenodd" clip-rule="evenodd" d="M6.97938 18.9647C6.71686 19.5983 6.66683 19.9222 6.66683 20V33.3363C6.66683 34.2548 7.41103 35 8.3335 35H13.3335V25C13.3335 23.159 14.8259 21.6667 16.6668 21.6667H23.3335C25.1745 21.6667 26.6668 23.159 26.6668 25V35H31.6668C32.5893 35 33.3335 34.2548 33.3335 33.3363V20C33.3335 19.9222 33.2835 19.5983 33.021 18.9647C32.7772 18.376 32.4073 17.6543 31.9247 16.8375C30.9608 15.2063 29.6085 13.3 28.0948 11.4836C26.5777 9.66312 24.94 7.98281 23.4172 6.77422C22.656 6.17006 21.9562 5.71012 21.3427 5.40732C20.7152 5.09769 20.2737 4.99999 20.0002 4.99999C19.7267 4.99999 19.2852 5.09769 18.6577 5.40732C18.0442 5.71012 17.3443 6.17006 16.5831 6.77422C15.0603 7.98281 13.4226 9.66312 11.9055 11.4836C10.3919 13.3 9.03951 15.2063 8.07566 16.8375C7.59296 17.6543 7.22325 18.376 6.97938 18.9647ZM17.1825 2.41817C18.059 1.98562 19.0237 1.66666 20.0002 1.66666C20.9767 1.66666 21.9413 1.98562 22.8178 2.41817C23.7082 2.85756 24.61 3.46534 25.4893 4.16326C27.2478 5.55884 29.0477 7.42019 30.6555 9.34969C32.267 11.2833 33.727 13.3353 34.7945 15.1417C35.3273 16.0436 35.778 16.9103 36.1005 17.689C36.4043 18.4225 36.6668 19.2445 36.6668 20V33.3363C36.6668 36.0998 34.4263 38.3333 31.6668 38.3333H26.6668C24.8258 38.3333 23.3335 36.841 23.3335 35V25H16.6668V35C16.6668 36.841 15.1744 38.3333 13.3335 38.3333H8.3335C5.57406 38.3333 3.3335 36.0998 3.3335 33.3363V20C3.3335 19.2445 3.59596 18.4225 3.89986 17.689C4.2224 16.9103 4.67298 16.0436 5.20591 15.1417C6.27331 13.3353 7.73341 11.2833 9.3448 9.34969C10.9527 7.42019 12.7525 5.55884 14.5109 4.16326C15.3903 3.46534 16.2922 2.85756 17.1825 2.41817Z" fill="white"/>
</g>
</svg>
