<svg width="27" height="40" viewBox="0 0 27 40" fill="none" xmlns="http://www.w3.org/2000/svg">
<path fill-rule="evenodd" clip-rule="evenodd" d="M2.01704 14.7913V19.6544C2.01704 25.77 6.99508 30.7481 13.1107 30.7481C19.2264 30.7481 24.2044 25.77 24.2044 19.6544V14.7913H26.2214V19.6544C26.2214 26.5441 20.879 32.21 14.1194 32.7267L14.1192 37.983H19.1618V40H7.05962V37.983H12.1022L12.1021 32.7267C5.34246 32.2099 0 26.5441 0 19.6544V14.7913H2.01704ZM13.1107 0C18.115 0 22.1874 4.0724 22.1874 9.07667V19.1618C22.1874 24.1661 18.115 28.2385 13.1107 28.2385C8.10646 28.2385 4.03406 24.1661 4.03406 19.1618V9.07667C4.03406 4.0724 8.10646 0 13.1107 0Z" fill="white"/>
</svg>
