<svg width="25" height="25" viewBox="0 0 25 25" fill="none" xmlns="http://www.w3.org/2000/svg">
<path d="M14.0625 8.33334H17.1875L14.0625 11.4583H17.1875" stroke="white" stroke-width="2" stroke-linecap="round" stroke-linejoin="round"/>
<path d="M18.75 2.08334H22.9167L18.75 6.25001H22.9167" stroke="white" stroke-width="2" stroke-linecap="round" stroke-linejoin="round"/>
<path d="M7.68302 20.8469C7.30954 20.6308 6.83162 20.7584 6.61558 21.1319C6.39953 21.5054 6.52715 21.9833 6.90064 22.1994L7.68302 20.8469ZM2.80081 18.0995C3.01685 18.473 3.49477 18.6006 3.86826 18.3846C4.24174 18.1686 4.36936 17.6906 4.15332 17.3172L2.80081 18.0995ZM22.1356 12.5C22.1356 17.8215 17.8216 22.1354 12.5002 22.1354V23.6979C18.6846 23.6979 23.6981 18.6845 23.6981 12.5H22.1356ZM2.86475 12.5C2.86475 7.17852 7.17867 2.86459 12.5002 2.86459V1.30209C6.31573 1.30209 1.30225 6.31557 1.30225 12.5H2.86475ZM16.146 14.8438C12.8381 14.8438 10.1564 12.1621 10.1564 8.85418H8.59391C8.59391 13.0251 11.9751 16.4063 16.146 16.4063V14.8438ZM21.2765 11.9469C20.2264 13.6847 18.3212 14.8438 16.146 14.8438V16.4063C18.8907 16.4063 21.2926 14.9416 22.6139 12.7549L21.2765 11.9469ZM10.1564 8.85418C10.1564 6.67899 11.3155 4.77376 13.0533 3.72362L12.2453 2.38631C10.0586 3.70761 8.59391 6.10948 8.59391 8.85418H10.1564ZM12.5002 2.86459C12.408 2.86459 12.2999 2.82301 12.2214 2.74134C12.155 2.67217 12.1395 2.60672 12.1359 2.58025C12.1315 2.54779 12.1337 2.45373 12.2453 2.38631L13.0533 3.72362C13.5775 3.40694 13.746 2.82707 13.6843 2.37112C13.6204 1.89716 13.2466 1.30209 12.5002 1.30209V2.86459ZM22.6139 12.7549C22.5464 12.8665 22.4524 12.8687 22.42 12.8643C22.3935 12.8606 22.328 12.8452 22.2588 12.7788C22.1771 12.7003 22.1356 12.5922 22.1356 12.5H23.6981C23.6981 11.7536 23.103 11.3798 22.629 11.3158C22.1731 11.2542 21.5932 11.4227 21.2765 11.9469L22.6139 12.7549ZM12.5002 22.1354C10.7438 22.1354 9.09946 21.6663 7.68302 20.8469L6.90064 22.1994C8.5485 23.1526 10.4618 23.6979 12.5002 23.6979V22.1354ZM4.15332 17.3172C3.33394 15.9007 2.86475 14.2564 2.86475 12.5H1.30225C1.30225 14.5383 1.84757 16.4517 2.80081 18.0995L4.15332 17.3172Z" fill="white"/>
</svg>
