<svg width="40" height="40" viewBox="0 0 40 40" fill="none" xmlns="http://www.w3.org/2000/svg">
<path opacity="0.4" d="M20.2013 21.3C20.0847 21.2833 19.9347 21.2833 19.8013 21.3C16.868 21.2 14.5347 18.8 14.5347 15.85C14.5347 12.8333 16.968 10.3833 20.0013 10.3833C23.018 10.3833 25.468 12.8333 25.468 15.85C25.4513 18.8 23.1347 21.2 20.2013 21.3Z" stroke="white" stroke-width="3.75" stroke-linecap="round" stroke-linejoin="round"/>
<path opacity="0.34" d="M31.2328 32.3002C28.2662 35.0168 24.3328 36.6668 19.9995 36.6668C15.6661 36.6668 11.7328 35.0168 8.76611 32.3002C8.93278 30.7335 9.93278 29.2002 11.7161 28.0002C16.2828 24.9668 23.7495 24.9668 28.2828 28.0002C30.0662 29.2002 31.0662 30.7335 31.2328 32.3002Z" stroke="white" stroke-width="3.75" stroke-linecap="round" stroke-linejoin="round"/>
<path d="M20.0002 36.6667C29.2048 36.6667 36.6668 29.2047 36.6668 20C36.6668 10.7953 29.2048 3.33334 20.0002 3.33334C10.7954 3.33334 3.3335 10.7953 3.3335 20C3.3335 29.2047 10.7954 36.6667 20.0002 36.6667Z" stroke="white" stroke-width="3.75" stroke-linecap="round" stroke-linejoin="round"/>
</svg>
