<svg width="1443" height="442" viewBox="0 0 1443 442" fill="none" xmlns="http://www.w3.org/2000/svg">
<path d="M0 0H1443V442H0V0Z" fill="white"/>
<path fill-rule="evenodd" clip-rule="evenodd" d="M1429 14H14V428H1429V14ZM0 0V442H1443V0H0Z" fill="black"/>
<path d="M43 54H722V387H43V54Z" fill="black"/>
<path d="M328.159 184.909C327.307 177.712 323.85 172.125 317.79 168.148C311.729 164.17 304.295 162.182 295.489 162.182C289.049 162.182 283.415 163.223 278.585 165.307C273.803 167.39 270.062 170.255 267.364 173.901C264.712 177.546 263.386 181.689 263.386 186.329C263.386 190.212 264.31 193.55 266.156 196.344C268.05 199.09 270.465 201.386 273.4 203.233C276.336 205.032 279.414 206.524 282.633 207.707C285.853 208.844 288.812 209.767 291.511 210.477L306.284 214.454C310.072 215.449 314.286 216.822 318.926 218.574C323.614 220.326 328.088 222.717 332.349 225.747C336.658 228.73 340.209 232.565 343.003 237.253C345.796 241.94 347.193 247.693 347.193 254.511C347.193 262.371 345.133 269.473 341.014 275.818C336.942 282.163 330.976 287.205 323.116 290.946C315.304 294.687 305.81 296.557 294.636 296.557C284.22 296.557 275.2 294.876 267.577 291.514C260.001 288.152 254.035 283.465 249.679 277.452C245.37 271.438 242.932 264.455 242.364 256.5H260.545C261.019 261.992 262.865 266.538 266.085 270.136C269.352 273.687 273.471 276.339 278.443 278.091C283.462 279.795 288.86 280.648 294.636 280.648C301.36 280.648 307.397 279.559 312.747 277.381C318.097 275.155 322.335 272.078 325.46 268.148C328.585 264.17 330.148 259.53 330.148 254.227C330.148 249.398 328.798 245.468 326.099 242.437C323.4 239.407 319.849 236.945 315.446 235.051C311.042 233.157 306.284 231.5 301.17 230.079L283.273 224.966C271.909 221.699 262.913 217.035 256.284 210.974C249.655 204.914 246.341 196.983 246.341 187.182C246.341 179.038 248.543 171.936 252.946 165.875C257.397 159.767 263.363 155.032 270.844 151.67C278.372 148.261 286.776 146.557 296.057 146.557C305.432 146.557 313.765 148.238 321.057 151.599C328.348 154.914 334.125 159.459 338.386 165.236C342.695 171.012 344.968 177.57 345.204 184.909H328.159Z" fill="white"/>
<path d="M393.766 148.545V294H376.153V148.545H393.766Z" fill="white"/>
<path d="M429.082 294V148.545H446.696V278.375H514.31V294H429.082Z" fill="white"/>
<path d="M848.957 294L807.906 148.545H836.244L862.452 255.435H863.801L891.784 148.545H917.565L945.619 255.506H946.898L973.105 148.545H1001.44L960.392 294H934.398L905.278 191.94H904.142L874.952 294H848.957Z" fill="black"/>
<path d="M1024.72 294H996.596L1047.8 148.545H1080.33L1131.61 294H1103.49L1064.64 178.375H1063.5L1024.72 294ZM1025.64 236.969H1102.35V258.133H1025.64V236.969Z" fill="black"/>
<path d="M1150.77 294V148.545H1177.12V271.912H1241.18V294H1150.77Z" fill="black"/>
<path d="M1264.05 294V148.545H1290.4V215.378H1292.17L1348.92 148.545H1381.1L1324.85 213.815L1381.59 294H1349.92L1306.52 231.642L1290.4 250.676V294H1264.05Z" fill="black"/>
</svg>
